<?xml version="1.0" encoding="utf-8"?>
<!-- Generator: Adobe Illustrator 22.0.1, SVG Export Plug-In . SVG Version: 6.00 Build 0)  -->
<svg version="1.1" id="Layer_1" xmlns="http://www.w3.org/2000/svg" xmlns:xlink="http://www.w3.org/1999/xlink" x="0px" y="0px"
	 viewBox="0 0 181.8 50" style="enable-background:new 0 0 181.8 50;" xml:space="preserve">
<style type="text/css">
	.st0{fill:#CC0000;}
	.st1{fill:#FFFFFF;}
</style>
<title>Logo</title>
<desc>Created with Sketch.</desc>
<g id="Page-1">
	<g id="Logo">
		<g>
			<g id="color_x2F_red" transform="translate(0.741071, 0.383929)">
				<rect id="Rectangle-2" x="-0.7" y="-0.4" class="st0" width="50" height="50"/>
			</g>
			<path id="Fill-2" d="M62.5,18.9h6.3V35h4.4V18.9h6.3V15H62.5V18.9z M160.8,15h-17.1v3.8h6.3V35h4.4V18.9h6.3V15z M117.1,15
				l-5.2,8.1l-5.2-8.1h-5l8,12.5V35h4.4v-7.4l8-12.5H117.1z M91,14.3c-5.8,0-10.5,4.7-10.5,10.5c0,5.8,4.7,10.5,10.5,10.5
				c5.8,0,10.5-4.7,10.5-10.5C101.6,19.1,96.8,14.3,91,14.3z M91,31.5c-3.3,0-5.9-3-5.9-6.6c0-3.7,2.7-6.6,5.9-6.6
				c3.3,0,5.9,3,5.9,6.6C97,28.5,94.3,31.5,91,31.5z M132.6,14.3c-5.8,0-10.5,4.7-10.5,10.5c0,5.8,4.7,10.5,10.5,10.5
				c5.8,0,10.5-4.7,10.5-10.5C143.1,19.1,138.4,14.3,132.6,14.3z M132.6,31.5c-3.3,0-5.9-3-5.9-6.6c0-3.7,2.7-6.6,5.9-6.6
				c3.3,0,5.9,3,5.9,6.6C138.5,28.5,135.9,31.5,132.6,31.5z M173.7,15h-5.8L159.7,35h5l1.9-4.9h8.3l1.9,4.9h5L173.7,15z M168,26.6
				l2.8-7.4l2.8,7.4H168z"/>
			<path id="Fill-4" class="st1" d="M25.7,35c1.7-0.7,3.3-4.2,3.3-10c0-0.1,0-0.1,0-0.2c4.9-0.7,8.3-2.6,8.5-5.1
				c1.1,1.4,1.8,3,1.8,4.9C39.2,30.1,33.1,34.7,25.7,35 M10.8,24.6c0-1.9,0.6-3.6,1.8-4.9c0.1,2.5,3.6,4.4,8.5,5.1
				c0,0.1,0,0.1,0,0.2c0,6.1,1.6,9.4,3.3,10C16.8,34.7,10.8,30.1,10.8,24.6 M14.6,18.5c0.2-0.8,1.3-1.6,3.1-2.3
				c2-0.7,4.2-1.1,6.6-1.2c-1.8,0.6-2.8,3.6-3.2,7.2C15.9,21.7,14.3,19.9,14.6,18.5 M25,22.4c-0.9,0-1.7,0-2.5-0.1
				c0.4-3,1.5-4.7,2.5-4.7c1,0,2.1,1.7,2.5,4.7C26.7,22.4,25.9,22.4,25,22.4 M27.6,24.9c0,4.5-1.4,6.4-2.6,6.4
				c-1.3,0-2.6-1.9-2.6-6.4c0,0,0,0,0,0C23.2,25,24.1,25,25,25C25.9,25,26.8,25,27.6,24.9C27.6,24.9,27.6,24.9,27.6,24.9 M35.4,18.5
				c0.3,1.4-1.3,3.1-6.5,3.7c-0.3-3.6-1.4-6.6-3.2-7.2c2.4,0.1,4.6,0.5,6.5,1.2C34.1,16.9,35.2,17.8,35.4,18.5 M25,13.6
				c-9.4,0-16.7,4.9-16.7,11.4c0,6.3,7,11.4,16.7,11.4S41.7,31.3,41.7,25C41.7,18.5,34.4,13.6,25,13.6"/>
		</g>
	</g>
</g>
</svg>
